<svg width="240" height="240" viewBox="0 0 240 240" fill="none" xmlns="http://www.w3.org/2000/svg">
<g id="doodle-indumentaria">
<path id="Vector" d="M80 56L58 68L48 94L66 104L74 92V182C74 184.209 75.791 186 78 186H130C132.209 186 134 184.209 134 182V92L142 104L160 94L150 68L128 56" stroke="white" stroke-width="6" stroke-linecap="round" stroke-linejoin="round"/>
<path id="Vector_2" d="M80 56C80 56 88 70 104 70C120 70 128 56 128 56" stroke="white" stroke-width="6" stroke-linecap="round" stroke-linejoin="round"/>
<path id="Vector_3" d="M70 46L104 24L138 46H70Z" stroke="white" stroke-width="6" stroke-linecap="round" stroke-linejoin="round"/>
<path id="Vector_4" d="M104 24V16C104 11.582 100.418 8 96 8" stroke="white" stroke-width="6" stroke-linecap="round" stroke-linejoin="round"/>
<path id="Vector_5" d="M190 108H222C224.209 108 226 109.791 226 112V172C226 174.209 224.209 176 222 176H190L172 142L190 108Z" stroke="white" stroke-width="6" stroke-linecap="round" stroke-linejoin="round"/>
<path id="Vector_6" d="M196 148C199.314 148 202 145.314 202 142C202 138.686 199.314 136 196 136C192.686 136 190 138.686 190 142C190 145.314 192.686 148 196 148Z" stroke="white" stroke-width="6" stroke-linecap="round" stroke-linejoin="round"/>
<path id="Vector_7" d="M206 128H218M206 142H218M206 156H214" stroke="white" stroke-width="6" stroke-linecap="round" stroke-linejoin="round"/>
<path id="Vector_8" d="M26 52L32 40L36 52M36 36L48 40L36 44" stroke="white" stroke-width="6" stroke-linecap="round" stroke-linejoin="round"/>
<path id="Vector_9" d="M190 200L196 190L200 200M200 186L210 190L200 194" stroke="white" stroke-width="6" stroke-linecap="round" stroke-linejoin="round"/>
</g>
</svg>
